<?xml version="1.0" encoding="utf-8"?>
<!-- Generator: Adobe Illustrator 14.0.0, SVG Export Plug-In . SVG Version: 6.00 Build 43363)  -->
<!DOCTYPE svg PUBLIC "-//W3C//DTD SVG 1.1//EN" "http://www.w3.org/Graphics/SVG/1.1/DTD/svg11.dtd">
<svg version="1.1" id="Ebene_1" xmlns="http://www.w3.org/2000/svg" xmlns:xlink="http://www.w3.org/1999/xlink" x="0px" y="0px"
	 width="10000px" height="2000px" viewBox="0 0 10000 2000" enable-background="new 0 0 10000 2000" xml:space="preserve">
<g>
	<defs>
		<rect id="SVGID_1_" width="10000" height="2000"/>
	</defs>
	<clipPath id="SVGID_2_">
		<use xlink:href="#SVGID_1_"  overflow="visible"/>
	</clipPath>
	<path clip-path="url(#SVGID_2_)" fill="#5A646E" d="M1000,500c-276.143,0-500,223.857-500,500v750h250v-316.898
		c73.544,42.545,158.927,66.898,250,66.898c276.143,0,500-223.857,500-500C1500,723.857,1276.143,500,1000,500 M1000,1250
		c-138.071,0-250-111.929-250-250c0-138.071,111.929-250,250-250c138.071,0,250,111.929,250,250
		C1250,1138.071,1138.071,1250,1000,1250"/>
	<path clip-path="url(#SVGID_2_)" fill="#5A646E" d="M3250,500c-149.339,0-283.382,65.476-375,169.281
		C2783.382,565.476,2649.339,500,2500,500c-276.143,0-500,223.857-500,500v500h250v-500c0-138.071,111.929-250,250-250
		c138.071,0,250,111.929,250,250v500h250v-500c0-138.071,111.929-250,250-250c138.071,0,250,111.929,250,250v500h250v-500
		C3750,723.857,3526.143,500,3250,500"/>
	<rect x="1625" y="500" clip-path="url(#SVGID_2_)" fill="#5A646E" width="250" height="1000"/>
	<path clip-path="url(#SVGID_2_)" fill="#28A0DC" d="M5778.553,646.446c-195.262-195.262-511.844-195.262-707.106,0l-519.67,530.33
		c-97.631,97.632-255.922,97.632-353.553,0c-97.631-97.631-97.631-255.922,0-353.553c97.631-97.632,255.922-97.632,353.553,0
		l103.927,106.059l175-178.591l-102.15-104.245c-195.262-195.262-511.844-195.262-707.107,0
		c-195.262,195.263-195.262,511.845,0,707.107c195.263,195.262,511.845,195.262,707.107,0L4900,1178.591l171.446,174.963
		c195.263,195.262,511.845,195.262,707.106,0C5973.814,1158.291,5973.814,841.709,5778.553,646.446 M5601.776,1176.776
		c-97.632,97.632-255.923,97.632-353.554,0L5075.001,1000l173.222-176.777c97.631-97.632,255.922-97.632,353.554,0
		C5699.408,920.854,5699.408,1079.146,5601.776,1176.776"/>
	<path clip-path="url(#SVGID_2_)" fill="#28A0DC" d="M6050,1000v500h250v-500c0-138.071,111.929-250,250-250V500
		C6273.857,500,6050,723.857,6050,1000"/>
	<path clip-path="url(#SVGID_2_)" fill="#28A0DC" d="M7100.002,500.001c-276.143-0.001-500,223.856-500,499.999
		c0,276.143,223.857,499.999,500,499.999c138.072-0.001,263.066-55.97,353.549-146.452l-176.779-176.779
		c-45.24,45.242-107.734,73.231-176.77,73.232c-102.512-0.001-190.598-61.71-229.178-150H7177h173h250v-100h0.003
		C7600.002,724,7376.145,500,7100.002,500.001 M6870.824,900c38.578-88.291,126.664-150.001,229.178-150
		c102.502-0.001,190.578,61.734,229.164,150H6870.824z M7350,1000v-0.154c0,0.051,0.002,0.102,0.002,0.154H7350z"/>
	<path clip-path="url(#SVGID_2_)" fill="#5A646E" d="M1750,375c75.939,0,137.5-61.561,137.5-137.5
		c0-75.938-61.561-137.5-137.5-137.5s-137.5,61.562-137.5,137.5C1612.5,313.439,1674.061,375,1750,375"/>
</g>
</svg>
